<?xml version="1.0" encoding="iso-8859-1"?>
<!-- Generator: Adobe Illustrator 17.1.0, SVG Export Plug-In . SVG Version: 6.00 Build 0)  -->
<!DOCTYPE svg PUBLIC "-//W3C//DTD SVG 1.1//EN" "http://www.w3.org/Graphics/SVG/1.1/DTD/svg11.dtd">
<svg version="1.1" id="Layer_1" xmlns="http://www.w3.org/2000/svg" xmlns:xlink="http://www.w3.org/1999/xlink" x="0px" y="0px"
	 viewBox="0 0 20 21" style="enable-background:new 0 0 20 21;" xml:space="preserve" fill="#7C7C7C">
<g>
	<path style="fill:#313130;" d="M18.316,2.285h-2.701V1.042c0-0.344-0.28-0.624-0.624-0.624c-0.343,0-0.624,0.28-0.624,0.624v1.244
		h-3.734V1.042c0-0.344-0.28-0.624-0.624-0.624c-0.344,0-0.624,0.28-0.624,0.624v1.244H5.647V1.042c0-0.344-0.28-0.624-0.624-0.624
		c-0.343,0-0.62,0.28-0.62,0.624v1.244H1.703c-0.916,0-1.661,0.745-1.661,1.661v14.743c0,0.919,0.745,1.664,1.661,1.664h16.614
		c0.916,0,1.661-0.745,1.661-1.664V3.946C19.977,3.03,19.232,2.285,18.316,2.285L18.316,2.285z M18.73,18.689
		c0,0.231-0.185,0.417-0.413,0.417H1.703c-0.228,0-0.413-0.185-0.413-0.417V3.946c0-0.228,0.185-0.413,0.413-0.413h2.701V4.78
		c0,0.343,0.276,0.62,0.62,0.62c0.344,0,0.624-0.276,0.624-0.62V3.533h3.738V4.78c0,0.343,0.28,0.62,0.624,0.62
		c0.343,0,0.624-0.276,0.624-0.62V3.533h3.734V4.78c0,0.343,0.28,0.62,0.624,0.62c0.344,0,0.624-0.276,0.624-0.62V3.533h2.701
		c0.228,0,0.413,0.185,0.413,0.413V18.689z M18.73,18.689"/>
	<rect x="4.404" y="7.895" style="fill:#313130;" width="2.491" height="1.867"/>
	<rect x="4.404" y="11.009" style="fill:#313130;" width="2.491" height="1.867"/>
	<rect x="4.404" y="14.124" style="fill:#313130;" width="2.491" height="1.867"/>
	<rect x="8.762" y="14.124" style="fill:#313130;" width="2.491" height="1.867"/>
	<rect x="8.762" y="11.009" style="fill:#313130;" width="2.491" height="1.867"/>
	<rect x="8.762" y="7.895" style="fill:#313130;" width="2.491" height="1.867"/>
	<rect x="13.124" y="14.124" style="fill:#313130;" width="2.491" height="1.867"/>
	<rect x="13.124" y="11.009" style="fill:#313130;" width="2.491" height="1.867"/>
	<rect x="13.124" y="7.895" style="fill:#313130;" width="2.491" height="1.867"/>
</g>
<g>
</g>
<g>
</g>
<g>
</g>
<g>
</g>
<g>
</g>
<g>
</g>
</svg>
